<?xml version="1.0" encoding="utf-8"?>
<svg version="1.1" xmlns="http://www.w3.org/2000/svg" x="0px" y="0px"
     width="92px"
     height="35px"
	 viewBox="165 140 330 225" xml:space="preserve">
<style type="text/css">
  #Vector_Graphics path{fill: white;stroke:white;stroke-width:3px}
  polygon{fill: white;}
</style>
<g id="Vector_Graphics">
	<g>
		<path d="M211.3,154.3c1.9,1,3.6-1.5,3.7-1.6c0.2,0.8,0.4,1.6,0.6,2.4c0,0.1,0.3,0.4,0.7,0.2c0,0,1.9-0.9,2.4-2.8
			c0.1-0.5,0-0.4-0.2-0.1c-0.4,0.6-1.4,2-2.4,2.2c-0.2-0.8-0.4-1.6-0.6-2.3c0.8-0.8,1.4-2.1,3.1-1.6c0.2,0.1,0.3,0.2,0.4,0.1
			c-0.3-0.4-0.6-0.6-1.2-0.6c-0.6,0.1-1.1,0.3-1.6,0.6c-0.2,0.2-0.5,0.6-0.8,0.9c-0.2-0.6-0.5-1.9-0.5-2c0.2-0.1,3.3-1.2,3.3-2.1
			c0-1.5-3.6-0.8-4.5-0.5c-0.3,0.1,0.5,2.3,0.5,2.4C211.9,150.4,209.5,153.2,211.3,154.3z M217.4,147.2c0.7,0.6-2.1,1.8-2.6,2
			c-0.1-0.5-0.3-1.1-0.4-1.5C214.3,147.3,217,146.9,217.4,147.2z M214.3,149.9c0.2,0.7,0.4,1.5,0.6,2.2c-0.7,0.7-2.1,1.7-3.1,1.1
			C210.8,152.6,212.7,150.5,214.3,149.9z"/>
		<path  d="M299.3,273.5c-4.4,0-8.1,4.7-8.2,10.6c-0.1,5.9,3.5,10.8,7.9,10.8c4.4,0,8.1-4.7,8.2-10.6
			C307.2,278.4,303.7,273.5,299.3,273.5z"/>
		<path  d="M556.4,228.3l-1.5-1c-4.7-0.1-20.5,2-26.4,30.4c-1.3,6.2-2.1,11.9-2.9,17c-2.1,14.1-3.4,23.4-11.7,24.4
			c-10.9,1.3-41.1-7.1-62-19.5c-13.3-7.9-31.8-22.4-51.4-37.7c-3.9-3-7.8-6.1-11.7-9.1l16.6,11.8l1.5-11.8l-21-2.3
			c-4.3-3.3-8.5-6.6-12.7-9.7c8.4,0.3,35.8,2.9,35.8,2.9l1.3-8.6l2.9-0.3c0,0,0.8,1.4,0-1.5c-16.9-4.8-61.2-7.8-61.2-7.8
			s11.9,7.8,19.6,14.2c-10.5-7.9-20.5-15.1-29.7-20.8c42.3,2,134.5,6.7,178.7,23.4c0.2,3.3,0.5,10.4-0.2,11.1
			c-1.3,1.4-6.3-0.1-6.3-0.1l0,2.7c0,0,6.5,1.4,7.5-1c1.1-2.6,0.9-8.8,0.7-12.1c7.2,2.8,13,6,16.9,9.6l2.7-2.1
			c-27.8-25.1-158.2-34.2-208.5-36.6c-1.8-1-3.5-1.9-5.2-2.7l-0.4,0.8c19.2,9.3,46,30.3,71.9,50.6c19.6,15.4,38.1,29.9,51.5,37.8
			c18.1,10.7,45.3,19.6,59.3,19.8c1.2,0,2.3,0,3.3-0.2c9-1.1,10.4-10.7,12.5-25.2c0.7-5.1,1.6-10.8,2.9-17
			C535.3,230.2,551.9,228.3,556.4,228.3z"/>
		<polygon points="520.6,262.3 518,262.3 514,265.3 517.3,266.7 522.2,264.2 522.3,249.5 520.8,248.6 		"/>
		<path d="M295.8,195.5c-14.6-0.3-26.8,8.1-44.8,8.9c-20.2,0.8-35.9-0.9-58.2,21.5l0,1.3c22.3-22.4,38.1-20.7,58.2-21.5
			c18-0.7,30.2-9.1,44.8-8.9c12.5,0.2,18.9,3.6,29.2,8.9l-0.6-1.4C314.1,199,308.3,195.8,295.8,195.5z"/>
		<path d="M615.9,293l-0.1,8.6c-0.7,0.2-1.4,0.4-2.1,0.4c0-3.2,0.5-5.3,0.6-6.9l0,0c0.8-8.7-3.5-14.7-9.4-22.9c-0.7-1-1.5-2-2.2-3.1
			c-2-2.8-4-6.5-6.1-10.4c-7.2-13.3-16.9-31.6-36.6-32.5c-10.6-10.7-41-27.7-51.5-30.8c-3.4,0-15.9,0.9-22.6,1.4
			c-10.1-2.3-25.5-5.6-34.6-7.1c2.5-3.1,0.6-6.5-0.9-7.3l9.4-8.8v0l0.1-0.1l1.1-1l0,0l3.2-3l-5.3-4.4c1-2.2,1.5-3.5,2-4.6
			c0.6-1.4,1.1-2.5,2-4.4c0.5-1,0.2-1.6,0-1.9c-1.1-1.3-4.6-0.5-5.4-0.3l-0.2,0l-1.2,2c-15.8-1.1-54.6-2.9-71.6-3.1
			c0.1-0.7,0.1-1.5-0.3-2.1c-0.1-0.1-1.2-1.5-3.1-1.7c-1.4-0.1-2.8,0.5-4.2,1.9c-0.3,0.3-1.6,1.8-2.6,2.9
			c-6.9,0.8-36.8,9.2-44.8,12.8l-2.9-1.6l-1.8,0.8l-2.8,7.4l-84.7-7.3l0,2.2l-9.6-0.7l-5.2-1.6l0.1-5.1l-4.6-1.7l0-3.1l-7.5-0.1
			l-0.1,3l-2.6,0.7l-0.8,3.1l-8.3,0.1l-15.5,16.3l-3,7.2l0,0c-3.1-8.6-19.3-16.2-32.8-8.9c-7.2,3.9-10.2,11-10.9,17.4l-0.1,0
			c-4.1-0.7-10.9-1.9-19-2.8c0.1,0,0.2,0,0.3,0c-0.2-4.8-4.9-6.4-8.7-6.4c-7.6-0.1-7.6,5.3-7.6,5.3c0.1,0,0.1,0,0.2,0
			c-4-0.1-8-0.1-12,0.2c-23.8,1.4-38.7,9.4-44.3,23.8l-0.1,0.2l0,0.2c-0.1,4.9,1,10.4,1.1,10.6l0.2,0.8l0.8,0
			c11-0.5,22,2.6,25.6,7.2c-6.4,5.7-15.8,17.9-19.1,27.4c10,0.3,34.3,0.4,34.3,0.4c-1.7-10.7-7.3-22.4-13.5-29.2c0,0,0,0,0,0
			c-4.1-4.9-15.3-8-26.6-7.7c-0.3-1.7-0.9-5.7-0.9-9.3c8.4-21.2,38.3-27.6,89-18.8l0.3,0.1c-0.1,4.8,1.2,8.9,3,10.3
			c0,0,1.1,1.1,1.7-0.8c-3-2.5-3-7.9-3-7.9l17.9-1.2l0.4,0.6l-13.6,4.9l1,1.9l17.6-3.4l0.4,2.7c0,0-15.3,4.2-20.9,5.9
			c0.3,1.6,8.5,9,10.4,10.7c-2.8,1.4-4.7,2.5-4.7,2.5c-2.9-9.7-17.5-12-22.8-8.4c23.1,2.7,17.1,21.1,17.1,21.1l-6.8-0.1
			c0,0-1-10.7-7.1-10.8c-4.6,0-7.4,5.2-7.9,9.8c-0.5,4.6,8.6,2,7.7,5c-1,3.1-5.8,4.4-5.8,4.4s1.6,2.1,4.1,2.1
			c5.3,0.1,6.5-5.1,6.5-5.1l22.5,0.4l1.8,2.2l11.6-2l-8.8-2.1c0,0-0.8-8.2,4.5-11.4c0,0,0.6-3.3-2.5-1.8c-3.1,1.5-6.1,5.5-7.7,10.9
			c-5.6-0.8-8.9-1.6-8.9-1.6l1.3-7.6l20.1-6.2c0,0,3.1-6.4,2.4-8.2c0,0-2.1-6,0.2-9.2c2.6-3.6,7.4-3,7.4-3l0.2-3.2
			c5.9-1.5,10.4,1.1,11.6,5.4c2.7,9.6-6.5,12.9-6.5,12.9s-10,2.7-11.4,13.9c2.5,0,5.1,3.6,5,6.7c4.3,1.6,6.9-5.8,6.9-5.8l1.5,0.8
			l-4.4,9.1l-2.4,0.1c0,0-0.1,6.4-6.9,9.1c-6.6,2.5-11.9-2.3-11.9-2.3l-1.6,11.8l-60.9,0.2c-2.3-15.6-12.6-42.3-42.4-46.6
			c3.9-12.6,31.8-24,74.8-16.1c-1-0.8-2.4-1.2-3.7-1.5c-43.1-8.5-72.8,5.6-74,20.3c29,2.3,40.9,27.9,43.9,43.7
			c0.2,0.9,0.4,1.7,1.1,2l0,0.1l0.2,0c0.1,0,0.2,0,0.4,0l71.2-0.3l0.7-0.5l-0.5,2.8l-3.6,0.4l0,1.9l-8,0.5l-0.1,5.9l11.7,0.6
			l-1.4,3.7l-3.7,0.3l-1.7,6l-17.5-4.1l-45.8-1c0,0,0,0,0,0l-3.1,0l0.2-15l-4-1.1l0,3.5l2,0.5l0.9,4l-6.2-0.1l0-4.3l-32.3,2.6l0,1.4
			l29.8,2.5l0.3,5.3l-41.9-0.6l0.3-5.5l8.2-1.2l0-1.4l-10.6-4.4l-0.1,5.7l0,1.7l-0.1,8l52.5,1.5l1.1,2.5c0.2,0.3,0.5,0.5,0.8,0.8
			l-19.7-0.2c-3.3-0.7-6.2-1.7-6.6-3.2l-17.6-0.8c3.2,48.8,28,64.8,51.7,67.7c36.2,4.4,55.4-26.6,58.5-43.4l42.8,0.2
			c0,0,1.8,3.7,4.6,5.6c2.8,1.9,21.1,1.4,21.1,1.4s3.8,37.6,57,38.1c37.6,0.4,48.5-27.3,51.6-36.2c6.3,1.2,25.1,3.7,25.1,3.7
			c1,10.2,11.6,25.3,27.8,25.5c21.5,0.2,28-9.7,29.7-19.7c6.2,0.3,97.7,5.9,103.2,6.1c4.6,18,20.3,19.3,36.8,18.7
			c16.5-0.6,23.1-32,23.6-41.1l37-1.1l0.1-12L615.9,293z M141.7,191.1c0.8-6.2,6.4-8.9,6.4-8.9s8.9,8,10.2,8.9
			C158.3,191.1,152.7,191.6,141.7,191.1z M161.3,215.2c-2.2,1-4.6,2.2-6.8,3.3c-2-1.1-5.2-4.4-5.2-4.4s12.4-6.2,15.4-7.5
			C165.6,207.9,161.5,214.8,161.3,215.2z M170.9,190.4l-10.4-12.5c0,0,8.4,0.4,12.8,7L170.9,190.4z M89.7,276.7l-3.2,0l-0.1-4.2
			l3.4,0L89.7,276.7z M437.9,165.4l2-5.3l15.5-1.7l2.2-3.7c1.5-0.3,3.7-0.5,4.2,0.1c0.1,0.2,0.1,0.5-0.1,0.9c-0.9,2-1.4,3-2,4.5
			c-0.5,1.2-1.1,2.6-2.1,4.9l-0.1,0.3l4.8,3.9l-2.5,2.8l-4.9-2.9l-17.6-0.9L437.9,165.4z M436.7,171.5l15.6,0.8l0,3.1l-7.7,4.7
			c-2.4-1-5.5-1.8-9.1-2.3L436.7,171.5z M161.3,297.6c-10.2-0.1-42.4-1.4-42.4-1.4l-3.4,11.8l-4.9-0.8l-0.1-11.1
			c0,0-14.4-1.2-22.9-2.3c-3.1-0.4-3.2-6.4-3.2-8.3l11.4,0.1c10.3,7.2,32,7.6,53.4,7l-1.1-1.7c-14.9,0.1-41.7,1.8-50.6-11l44.3,0.5
			l17.1,4.1l0.5,0l17.4,0.2C176.4,288.7,173.9,297.7,161.3,297.6z M292.3,342.5c-24.6-0.3-44.3-26.6-44-58.9
			c0.4-32.2,20.6-58.2,45.3-57.9c24.6,0.3,44.3,26.6,44,58.9C337.2,316.9,317,342.8,292.3,342.5z M581.9,306.4
			c-0.9,7.7-5.6,34.4-20.3,34.2c-13.5-0.1-21.8-21.1-21.6-39.2c0.1-4.9,11.7-47.5,23.6-44.6C584.9,261.8,583.3,294,581.9,306.4z
			 M534.9,290c2.2-2.1,3.3-7.5,4.7-14.4c2.3-11.1,5.2-24.8,13.8-31.2c4.6-3.5,9.8-4.8,14.9-3.9c3.3,0.6,6.6,2.1,9.5,4.4
			c-2.8-1.7-5.9-2.5-9.8-2.2c-9,0.5-13.3,12-13.3,12l1.6,0.2c0.7-3.1,6.1-10.9,11.5-11c17.6-0.2,13.5,16.2,41.9,47.2
			c2.3,2.6,1.7,4.9,1.7,11c-5.4-0.3-9-4.3-14.9-5.4c-4.3-0.8-5.5,1.6-6.2-7.8c-0.7-9.1-5.8-37.4-22.9-37.6
			c-15.3-0.2-25,35.6-28.6,47.1c-3.6-1.2-7.5,3.1-8.8,4.6c-4.7,5.4-17,7.7-36.5,1.5c-78.3-25-128.9-88.9-166.8-99.4
			c4.3,3.3,6,7,5.9,9.8c37.9,10.5,82.3,66.7,160.7,91.3c21,6.6,31.5,4,36.1-0.8c1.4-1.4,5.4-6,8.9-5.3c-0.2,0.5-0.3,1-0.5,1.3
			c-4.9,11.2-14.9,13.8-28.9,12.4c-40.9-4.2-136.2-58.2-160.3-60.6c-3.5-1.7-9.2-38.7-42.6-45.4c-26.8-5.4-34.4,10.6-57.8,9.6
			c-26.2-1.2-51.9,5.7-64.4,41.9l63,1.4l-0.9,20.4l-46.5-1l-4.4,2.9l-17.9-0.2c0,0,0,0.2,0,0.4l0-0.4l-12.4-0.1l2.1-4.8l24.2,0.3
			l1.6-1.1l-23-0.3l1.6-4.3l62.2,1l0,4l10.8,0.1l0.2-14.5l-11.3-0.1l-1.2,1.1l4,0.5l0.1,5.7l-62.4-2.1l0-2l8.5-0.2l0.2-1.5
			l-13.1-0.9l1-4.9l6.1,0.2l0.3-1.2c6.7-22.9,23.4-53.7,64.4-70.5c23.7-9.7,53.4-7.6,73.4-2.4l2.1-0.5c-20.1-5.3-51.9-7.8-75.8,2
			c-39.6,16.3-56.6,45.4-64,68.2c4-18.2,21.5-41,21.5-41l0.4-33.5l-11.6-2l11.6-1.5l0.4-11.8l9.8-0.4l0.8-3.5l2.9-0.8l0.1-2.6l3.8,0
			l0,2.5l4.6,1.7l-0.1,5.1l5.7,1.9l0.9,0.3l11.9,0.8l-0.4-3l84.5,8l3-8l1-0.4l1.4,1.1l-0.1,7.9l32.9,1.5l12.8-22
			c1-1.2,2.9-3.4,3.3-3.7c1.2-1.2,2.3-1.7,3.5-1.6c1.5,0.1,2.4,1.3,2.4,1.3c0.3,0.5,0.3,1.3,0.1,2.1l-12.8,24.1l37.1,0.4l21.7-13.9
			l0.4,1.7l-15.6,13.2l14.4,0.2c7,0.4,11.5,1.4,14.2,2.4c3.3,1.2,6.8,3.4,3.2,6.5c-4.1,3.5-10.9,5.3-13.7,6.3c-0.9,0.3-1,1-1,1
			l8.2,0.5c0.1,0,0.2,0,0.4,0l2.3,0.1l0,0c49.7,2.9,90.4,23.1,98.5,32.4l2.3,1.7l2.2-1.1c-8.3-9.7-50-31.5-100.9-34
			c1.6-0.8,3.7-2.1,5.5-3.5c11.5,1.9,36.1,7.3,43.5,9.2c7,2.1,11.9,3.8,13,3.9c1.2,0.1,2.2-4.2,2.4-6.9
			c10.6,3.3,40.6,20.3,50.4,30.3l0.3,0.3l0.4,0c18.9,0.7,28.1,17.8,35.4,31.5c2.1,4,4.2,7.8,6.2,10.6c0.8,1.1,1.5,2.1,2.3,3.1
			c4.6,6.4,8.2,11.3,9,17.3c-16-18.4-22.3-33.4-29.6-41.6c-4-5.2-8.9-8.7-14.3-9.6c-5.4-0.9-10.8,0.5-15.6,4.1
			c-8.9,6.6-11.8,20.6-14.1,31.8c-1.3,6.4-2.2,12.4-4.1,14.2L534.9,290z"/>
		<path d="M448.3,212.5c-6,0.3-9.1,5.9-8.1,9.8c1.3-10.4,13.3-9.9,15.1-5.2l1.7-0.9C454.7,213,451.5,212.1,448.3,212.5z"/>
		<path d="M292.2,246.4c-15.7-0.2-28.6,16.6-28.8,37.5c-0.2,20.8,12.3,37.9,28,38.1c15.7,0.2,28.6-16.6,28.8-37.5
			C320.4,263.6,307.8,246.5,292.2,246.4z M291.3,321c-15.2-0.2-27.3-16.8-27.1-37.2c0.2-20.3,12.7-36.7,27.9-36.5
			c15.2,0.2,27.3,16.8,27.1,37.2C319,304.8,306.5,321.2,291.3,321z"/>
		<path d="M297.5,265c-8-0.1-14.6,8.5-14.7,19.1c-0.1,10.6,6.3,19.3,14.3,19.4c8,0.1,14.6-8.5,14.7-19.1
			C311.9,273.8,305.5,265.1,297.5,265z M297.1,302.5c-7.5-0.1-13.5-8.4-13.4-18.5c0.1-10.1,6.3-18.2,13.8-18.2
			c7.5,0.1,13.5,8.4,13.4,18.5C310.8,294.4,304.6,302.6,297.1,302.5z"/>
		<path d="M291.3,241.9c-17.6-0.2-32.1,18.6-32.3,41.9c-0.3,23.3,13.8,42.4,31.4,42.6c17.6,0.2,32.1-18.6,32.3-41.9
			C323,261.2,308.9,242.1,291.3,241.9z M290.4,324.5c-16.6-0.2-29.8-18.5-29.6-40.7c0.2-22.3,13.9-40.3,30.5-40.1
			c16.6,0.2,29.8,18.5,29.6,40.7C320.6,306.7,306.9,324.7,290.4,324.5z"/>
		<path d="M220.5,171.8c-16.2,4.8-14.2,25.6-8.9,30l1.5-1.1c-4.2-3.6-6.6-23.2,7.4-27.4c12.2-3.6,20.4,5.5,20.3,11.8l1.2-0.5
			C242,177.9,232.7,168.2,220.5,171.8z"/>
		<path d="M558.8,267.2c-7.3-0.1-13.3,13-13.5,29.3c-0.2,16.2,5.6,29.5,12.9,29.6c7.3,0.1,13.3-13,13.5-29.3
			C571.8,280.5,566.1,267.3,558.8,267.2z"/>
		<path d="M283.2,172.3c-7.5,0.7-8.6,6.5-8.6,6.5l1.4,0c0-0.2,0.5-4.9,7.3-5.6c5.3-0.5,7.8,1.5,9,2.7c1.3,1.3,1.7,3.1,1.6,4l1.2,0
			l0.8,0c0.2-1.4-1.1-3.3-2.4-4.7C292.2,173.9,288.8,171.7,283.2,172.3z"/>
	</g>
</g>
</svg>
